HIERARCHY
ROOT mixamorig:Hips
{
	OFFSET 0.000000 201.639420 0.000000
	CHANNELS 6 Xposition Yposition Zposition Xrotation Yrotation Zrotation
	JOINT mixamorig:Spine
	{
		OFFSET 0.006200 19.524994 -2.481800
		CHANNELS 3 Xrotation Yrotation Zrotation
		JOINT mixamorig:Spine1
		{
			OFFSET -0.000900 22.835007 -2.825400
			CHANNELS 3 Xrotation Yrotation Zrotation
			JOINT mixamorig:Spine2
			{
				OFFSET -0.020600 26.552490 -3.193300
				CHANNELS 3 Xrotation Yrotation Zrotation
				JOINT mixamorig:Neck
				{
					OFFSET -0.060000 30.701813 1.352200
					CHANNELS 3 Xrotation Yrotation Zrotation
					JOINT mixamorig:Head
					{
						OFFSET -0.087200 22.547607 3.670900
						CHANNELS 3 Xrotation Yrotation Zrotation
						JOINT mixamorig:HeadTop_End
						{
							OFFSET -0.830600 40.355194 7.893500
							CHANNELS 3 Xrotation Yrotation Zrotation
							End Site
							{
								OFFSET 0.000000 30.592346 0.000000
							}
						}
						JOINT mixamorig:RightEye
						{
							OFFSET -6.302100 18.118591 16.197100
							CHANNELS 3 Xrotation Yrotation Zrotation
							End Site
							{
								OFFSET 0.000000 30.592346 0.000000
							}
						}
						JOINT mixamorig:LeftEye
						{
							OFFSET 6.741500 18.382690 16.401899
							CHANNELS 3 Xrotation Yrotation Zrotation
							End Site
							{
								OFFSET 0.000000 30.592346 0.000000
							}
						}
					}
				}
				JOINT mixamorig:LeftShoulder
				{
					OFFSET 11.924900 18.230499 1.425400
					CHANNELS 3 Xrotation Yrotation Zrotation
					JOINT mixamorig:LeftArm
					{
						OFFSET 25.435989 -0.697632 -5.229300
						CHANNELS 3 Xrotation Yrotation Zrotation
						JOINT mixamorig:LeftForeArm
						{
							OFFSET 54.684776 0.000000 0.000000
							CHANNELS 3 Xrotation Yrotation Zrotation
							JOINT mixamorig:LeftHand
							{
								OFFSET 55.098175 0.000000 0.000000
								CHANNELS 3 Xrotation Yrotation Zrotation
								JOINT mixamorig:LeftHandMiddle1
								{
									OFFSET 23.369751 0.000000 0.000000
									CHANNELS 3 Xrotation Yrotation Zrotation
									JOINT mixamorig:LeftHandMiddle2
									{
										OFFSET 6.378677 0.000000 0.000000
										CHANNELS 3 Xrotation Yrotation Zrotation
										JOINT mixamorig:LeftHandMiddle3
										{
											OFFSET 6.148331 0.000000 0.000000
											CHANNELS 3 Xrotation Yrotation Zrotation
											JOINT mixamorig:LeftHandMiddle4
											{
												OFFSET 6.582504 0.000000 0.000000
												CHANNELS 3 Xrotation Yrotation Zrotation
												End Site
												{
													OFFSET -1.168900 6.395691 1.028606
												}
											}
										}
									}
								}
								JOINT mixamorig:LeftHandThumb1
								{
									OFFSET 7.235672 -3.848206 5.434273
									CHANNELS 3 Xrotation Yrotation Zrotation
									JOINT mixamorig:LeftHandThumb2
									{
										OFFSET 6.568451 -3.792297 3.792300
										CHANNELS 3 Xrotation Yrotation Zrotation
										JOINT mixamorig:LeftHandThumb3
										{
											OFFSET 6.063080 -3.500519 3.500518
											CHANNELS 3 Xrotation Yrotation Zrotation
											JOINT mixamorig:LeftHandThumb4
											{
												OFFSET 4.793182 -2.767334 2.767349
												CHANNELS 3 Xrotation Yrotation Zrotation
												End Site
												{
													OFFSET 0.101639 6.054260 1.275483
												}
											}
										}
									}
								}
								JOINT mixamorig:LeftHandIndex1
								{
									OFFSET 23.101074 -0.309540 4.992809
									CHANNELS 3 Xrotation Yrotation Zrotation
									JOINT mixamorig:LeftHandIndex2
									{
										OFFSET 6.226883 0.000000 0.000000
										CHANNELS 3 Xrotation Yrotation Zrotation
										JOINT mixamorig:LeftHandIndex3
										{
											OFFSET 6.094330 0.000000 0.000000
											CHANNELS 3 Xrotation Yrotation Zrotation
											JOINT mixamorig:LeftHandIndex4
											{
												OFFSET 5.482605 0.000000 0.000000
												CHANNELS 3 Xrotation Yrotation Zrotation
												End Site
												{
													OFFSET -1.427902 5.233032 0.797164
												}
											}
										}
									}
								}
								JOINT mixamorig:LeftHandRing1
								{
									OFFSET 22.299240 0.021149 -3.964172
									CHANNELS 3 Xrotation Yrotation Zrotation
									JOINT mixamorig:LeftHandRing2
									{
										OFFSET 6.321869 0.000000 0.000000
										CHANNELS 3 Xrotation Yrotation Zrotation
										JOINT mixamorig:LeftHandRing3
										{
											OFFSET 5.899796 0.000000 0.000000
											CHANNELS 3 Xrotation Yrotation Zrotation
											JOINT mixamorig:LeftHandRing4
											{
												OFFSET 6.517899 0.000000 0.000000
												CHANNELS 3 Xrotation Yrotation Zrotation
												End Site
												{
													OFFSET -1.637299 6.232208 0.980890
												}
											}
										}
									}
								}
								JOINT mixamorig:LeftHandPinky1
								{
									OFFSET 20.463791 -0.302338 -8.562233
									CHANNELS 3 Xrotation Yrotation Zrotation
									JOINT mixamorig:LeftHandPinky2
									{
										OFFSET 6.908646 0.000000 0.000000
										CHANNELS 3 Xrotation Yrotation Zrotation
										JOINT mixamorig:LeftHandPinky3
										{
											OFFSET 4.622849 0.000000 0.000000
											CHANNELS 3 Xrotation Yrotation Zrotation
											JOINT mixamorig:LeftHandPinky4
											{
												OFFSET 5.216080 0.000000 0.000000
												CHANNELS 3 Xrotation Yrotation Zrotation
												End Site
												{
													OFFSET -0.606308 5.116241 0.814926
												}
											}
										}
									}
								}
							}
						}
					}
				}
				JOINT mixamorig:RightShoulder
				{
					OFFSET -12.001300 18.284088 1.348900
					CHANNELS 3 Xrotation Yrotation Zrotation
					JOINT mixamorig:RightArm
					{
						OFFSET -25.308500 -0.751312 -5.164599
						CHANNELS 3 Xrotation Yrotation Zrotation
						JOINT mixamorig:RightForeArm
						{
							OFFSET -54.684429 0.000000 0.000000
							CHANNELS 3 Xrotation Yrotation Zrotation
							JOINT mixamorig:RightHand
							{
								OFFSET -55.150291 0.000000 0.000000
								CHANNELS 3 Xrotation Yrotation Zrotation
								JOINT mixamorig:RightHandMiddle1
								{
									OFFSET -23.317566 0.000000 0.000000
									CHANNELS 3 Xrotation Yrotation Zrotation
									JOINT mixamorig:RightHandMiddle2
									{
										OFFSET -6.378403 0.000000 0.000000
										CHANNELS 3 Xrotation Yrotation Zrotation
										JOINT mixamorig:RightHandMiddle3
										{
											OFFSET -6.148193 0.000000 0.000000
											CHANNELS 3 Xrotation Yrotation Zrotation
											JOINT mixamorig:RightHandMiddle4
											{
												OFFSET -6.583389 0.000000 0.000000
												CHANNELS 3 Xrotation Yrotation Zrotation
												End Site
												{
													OFFSET 1.171692 6.395905 1.029786
												}
											}
										}
									}
								}
								JOINT mixamorig:RightHandThumb1
								{
									OFFSET -7.190521 -3.860474 5.435846
									CHANNELS 3 Xrotation Yrotation Zrotation
									JOINT mixamorig:RightHandThumb2
									{
										OFFSET -6.567429 -3.791718 3.791708
										CHANNELS 3 Xrotation Yrotation Zrotation
										JOINT mixamorig:RightHandThumb3
										{
											OFFSET -6.062469 -3.500153 3.500166
											CHANNELS 3 Xrotation Yrotation Zrotation
											JOINT mixamorig:RightHandThumb4
											{
												OFFSET -4.792618 -2.767029 2.767022
												CHANNELS 3 Xrotation Yrotation Zrotation
												End Site
												{
													OFFSET -0.100327 6.053253 1.276754
												}
											}
										}
									}
								}
								JOINT mixamorig:RightHandIndex1
								{
									OFFSET -23.048981 -0.310791 4.992554
									CHANNELS 3 Xrotation Yrotation Zrotation
									JOINT mixamorig:RightHandIndex2
									{
										OFFSET -6.227539 0.000000 0.000000
										CHANNELS 3 Xrotation Yrotation Zrotation
										JOINT mixamorig:RightHandIndex3
										{
											OFFSET -6.095047 0.000000 0.000000
											CHANNELS 3 Xrotation Yrotation Zrotation
											JOINT mixamorig:RightHandIndex4
											{
												OFFSET -5.484772 0.000000 0.000000
												CHANNELS 3 Xrotation Yrotation Zrotation
												End Site
												{
													OFFSET 1.420593 5.237305 0.797056
												}
											}
										}
									}
								}
								JOINT mixamorig:RightHandRing1
								{
									OFFSET -22.246323 0.020569 -3.963762
									CHANNELS 3 Xrotation Yrotation Zrotation
									JOINT mixamorig:RightHandRing2
									{
										OFFSET -6.322128 0.000000 0.000000
										CHANNELS 3 Xrotation Yrotation Zrotation
										JOINT mixamorig:RightHandRing3
										{
											OFFSET -5.900024 0.000000 0.000000
											CHANNELS 3 Xrotation Yrotation Zrotation
											JOINT mixamorig:RightHandRing4
											{
												OFFSET -6.518356 0.000000 0.000000
												CHANNELS 3 Xrotation Yrotation Zrotation
												End Site
												{
													OFFSET 1.636398 6.232697 0.982186
												}
											}
										}
									}
								}
								JOINT mixamorig:RightHandPinky1
								{
									OFFSET -20.411011 -0.303314 -8.561701
									CHANNELS 3 Xrotation Yrotation Zrotation
									JOINT mixamorig:RightHandPinky2
									{
										OFFSET -6.907349 0.000000 0.000000
										CHANNELS 3 Xrotation Yrotation Zrotation
										JOINT mixamorig:RightHandPinky3
										{
											OFFSET -4.623840 0.000000 0.000000
											CHANNELS 3 Xrotation Yrotation Zrotation
											JOINT mixamorig:RightHandPinky4
											{
												OFFSET -5.218353 0.000000 0.000000
												CHANNELS 3 Xrotation Yrotation Zrotation
												End Site
												{
													OFFSET 0.602097 5.118835 0.816273
												}
											}
										}
									}
								}
							}
						}
					}
				}
			}
		}
	}
	JOINT mixamorig:LeftUpLeg
	{
		OFFSET 18.168400 -13.561905 -0.039000
		CHANNELS 3 Xrotation Yrotation Zrotation
		JOINT mixamorig:LeftLeg
		{
			OFFSET 0.577358 -80.825211 -3.695000
			CHANNELS 3 Xrotation Yrotation Zrotation
			JOINT mixamorig:LeftFoot
			{
				OFFSET -0.577356 -83.370262 -6.520700
				CHANNELS 3 Xrotation Yrotation Zrotation
				JOINT mixamorig:LeftToeBase
				{
					OFFSET 0.750401 -20.798306 25.135401
					CHANNELS 3 Xrotation Yrotation Zrotation
					JOINT mixamorig:LeftToe_End
					{
						OFFSET -0.000500 0.001200 19.917799
						CHANNELS 3 Xrotation Yrotation Zrotation
						End Site
						{
							OFFSET 0.000000 19.917805 0.000000
						}
					}
				}
			}
		}
	}
	JOINT mixamorig:RightUpLeg
	{
		OFFSET -18.162500 -13.585098 -0.041000
		CHANNELS 3 Xrotation Yrotation Zrotation
		JOINT mixamorig:RightLeg
		{
			OFFSET -0.595024 -80.945297 -3.631900
			CHANNELS 3 Xrotation Yrotation Zrotation
			JOINT mixamorig:RightFoot
			{
				OFFSET 0.595024 -83.218193 -6.561200
				CHANNELS 3 Xrotation Yrotation Zrotation
				JOINT mixamorig:RightToeBase
				{
					OFFSET -0.753601 -20.807106 25.115000
					CHANNELS 3 Xrotation Yrotation Zrotation
					JOINT mixamorig:RightToe_End
					{
						OFFSET 0.000299 0.001700 19.918200
						CHANNELS 3 Xrotation Yrotation Zrotation
						End Site
						{
							OFFSET 0.000000 19.918203 0.000000
						}
					}
				}
			}
		}
	}
}
MOTION
Frames: 4
Frame Time: 0.033333
-0.100450 254.119568 0.245431 -1.013209 3.217920 0.578028 -2.805587 -0.071667 -0.231829 -5.611630 -0.102271 -0.620860 -5.611629 -0.102271 -0.620860 -27.780338 0.884577 -2.478862 -5.939944 -1.809257 2.604353 -0.000002 -0.000000 -0.000000 -0.000002 -0.000000 -0.000000 -0.000002 -0.000000 -0.000000 7.248272 6.365618 32.385140 -52.895335 -36.819907 5.857844 -23.466822 -23.506876 1.478720 -3.826436 -2.003315 0.833545 -7.057141 -4.106620 -72.543972 -5.071180 -4.491938 -69.918434 -0.000004 0.000004 0.000004 -0.000001 0.000000 0.000000 -23.505073 8.724698 4.055231 -11.818386 8.158939 13.633700 -0.000003 0.000012 0.000004 0.000001 0.000002 0.000001 -0.793907 -9.944893 -73.989882 -8.742893 -2.825324 -82.562288 -0.000005 0.000010 -0.000003 -0.000000 0.000000 0.000000 -10.868852 6.242561 -70.785615 -0.409524 -6.819521 -77.462453 -0.000001 -0.000001 0.000004 -0.000004 0.000001 -0.000002 -15.058359 6.363985 -69.029116 0.828522 -8.182920 -68.648701 -0.000002 -0.000000 0.000002 -0.000001 -0.000001 -0.000003 2.277494 -6.651286 -36.122586 -64.303868 35.763939 7.685022 -24.527645 16.757022 0.686875 10.834964 10.092879 2.136046 -13.105741 1.845242 86.654979 -5.617172 1.089155 83.764579 -0.000001 -0.000002 -0.000003 0.000000 0.000000 0.000001 -17.327363 6.468816 -26.575906 3.045389 -20.333157 1.155710 -0.000007 0.000000 -0.000014 0.000000 0.000000 0.000001 -8.189485 4.700931 83.344338 -5.502049 0.854566 81.248877 -0.000004 -0.000005 0.000000 0.000001 -0.000000 -0.000001 -13.657559 -7.092596 77.657830 -0.194332 7.087310 77.421301 -0.000008 -0.000001 -0.000002 0.000001 -0.000001 0.000001 -17.941884 -11.668101 76.734915 1.092367 11.886532 73.232776 0.000001 -0.000006 0.000004 -0.000001 -0.000000 -0.000000 -25.445766 9.065305 2.441356 43.891994 14.406170 1.462278 33.375197 1.633797 6.589382 0.000004 0.000003 -0.000004 0.000001 0.000003 -0.000001 -8.540160 -7.991335 -3.015182 26.809522 -20.226292 2.059070 44.805273 0.019788 0.100272 -0.000024 0.000008 -0.000011 0.000001 0.000001 0.000000 
-0.251378 254.196533 0.492826 -0.008995 3.487236 1.269500 -2.835032 -0.011021 -0.010255 -5.670075 0.000911 -0.161456 -5.670076 0.000911 -0.161456 -27.776885 0.949497 -2.551149 -5.944878 -1.776939 2.518398 0.000003 0.000000 -0.000000 0.000003 0.000000 -0.000000 0.000003 0.000000 -0.000000 7.197415 6.380982 32.170990 -52.084933 -31.938327 5.355775 -25.278293 -26.892144 0.774770 -4.660974 -1.209052 0.824902 -7.044571 -4.102726 -72.712773 -5.114520 -4.507568 -70.341475 -0.000005 0.000005 -0.000004 -0.000002 0.000001 0.000002 -23.542962 8.858254 4.245409 -11.807061 8.157600 13.956553 -0.000001 0.000014 0.000003 0.000001 -0.000003 -0.000002 -0.750011 -9.932553 -74.067289 -8.790307 -2.831317 -82.956247 -0.000005 0.000009 0.000002 0.000000 0.000000 -0.000003 -10.879299 6.238978 -70.941780 -0.434096 -6.824851 -77.875659 -0.000000 -0.000001 0.000001 -0.000001 -0.000003 -0.000001 -15.135091 6.334944 -69.136896 0.821092 -8.185765 -69.018092 -0.000004 -0.000001 0.000009 -0.000003 0.000000 0.000003 2.372257 -6.791255 -38.620874 -64.283609 32.828372 7.777454 -24.906394 23.133105 -1.328590 10.449261 6.743173 4.901578 -13.122551 1.846195 86.870130 -5.632715 1.090828 83.939357 -0.000001 -0.000002 -0.000002 0.000000 0.000000 0.000001 -17.327369 6.468803 -26.575907 3.161929 -20.547694 1.161305 -0.000008 0.000001 -0.000012 0.000001 0.000001 -0.000001 -8.204243 4.702614 83.535304 -5.518764 0.857117 81.417767 -0.000002 -0.000005 -0.000001 0.000001 0.000000 -0.000000 -13.683955 -7.086924 77.935580 -0.215056 7.091854 77.668294 -0.000007 0.000001 -0.000003 -0.000001 0.000002 -0.000001 -17.983518 -11.658622 77.110247 1.067787 11.893716 73.565017 0.000001 -0.000004 0.000004 0.000001 -0.000004 -0.000001 -27.541773 7.584888 3.935200 43.964008 13.404265 1.454467 35.150377 1.061812 5.009310 0.000003 0.000003 -0.000005 0.000004 0.000000 -0.000000 -9.541698 -12.020168 -2.736525 26.516842 -15.178337 0.996519 41.695197 -0.059132 0.257779 -0.000024 0.000009 -0.000010 0.000000 -0.000001 0.000002 
0.298622 254.455231 0.820296 0.758630 4.051416 2.431569 -2.818805 0.072290 0.153704 -5.637527 0.154629 0.161993 -5.637523 0.154631 0.161993 -27.767444 1.124096 -2.710819 -5.956599 -1.682355 2.315855 0.000004 -0.000000 -0.000000 0.000004 -0.000000 -0.000000 0.000004 -0.000000 -0.000000 7.060001 6.418432 31.570026 -51.554217 -27.718701 4.092137 -26.988500 -30.475959 0.581891 -5.302567 -0.100749 0.638711 -7.060271 -4.107592 -72.501994 -5.124099 -4.510953 -70.434844 -0.000002 0.000002 -0.000003 -0.000001 -0.000000 0.000000 -23.585342 9.006800 4.457785 -11.789514 8.156988 14.434070 -0.000001 0.000015 0.000004 0.000003 -0.000000 -0.000000 -1.014836 -10.011180 -73.203768 -8.714076 -2.821510 -82.322747 -0.000002 0.000010 -0.000004 0.000000 0.000000 0.000000 -10.882244 6.237944 -70.985630 -0.457663 -6.829780 -78.271482 0.000001 -0.000001 -0.000004 -0.000001 -0.000001 -0.000001 -15.208164 6.307544 -69.239444 0.810835 -8.189610 -69.527576 0.000000 0.000001 0.000006 -0.000001 -0.000001 -0.000002 2.452078 -6.662768 -39.493551 -64.894857 32.662456 6.239680 -24.952945 26.291348 -2.386813 10.895988 4.810940 7.223303 -13.166448 1.848356 87.431551 -5.673941 1.095030 84.403298 -0.000001 -0.000002 -0.000002 0.000001 -0.000000 0.000001 -17.327363 6.468807 -26.575899 3.469495 -21.112045 1.178419 -0.000007 -0.000001 -0.000014 -0.000002 -0.000001 -0.000000 -8.243191 4.706823 84.038784 -5.563304 0.863676 81.866982 -0.000005 -0.000005 -0.000003 0.000002 0.000000 0.000002 -13.751191 -7.073117 78.641815 -0.268580 7.103161 78.305366 -0.000009 -0.000001 -0.000003 -0.000002 0.000001 0.000004 -18.085769 -11.636582 78.029188 1.006155 11.911052 74.395616 0.000001 -0.000004 0.000003 0.000003 0.000001 -0.000000 -31.775929 7.048895 6.024015 48.681340 11.513298 0.252665 37.462044 -0.317759 1.471772 0.000002 0.000001 -0.000003 0.000001 0.000000 0.000001 -10.055003 -12.889150 -3.516221 26.994760 -13.038607 2.012077 37.687440 -0.128754 0.339880 -0.000028 0.000009 -0.000009 0.000002 -0.000001 0.000001 
1.429646 255.392410 1.226299 1.227002 4.756510 4.221326 -2.849744 0.103908 0.216399 -5.699398 0.209606 0.260502 -5.699396 0.209606 0.260501 -27.749322 1.377755 -2.871278 -5.979925 -1.529441 2.089975 -0.000002 -0.000000 -0.000000 -0.000002 -0.000000 -0.000000 -0.000002 -0.000000 -0.000000 6.859974 6.466809 30.644573 -51.009465 -23.587095 2.063418 -28.447577 -35.358189 -0.151017 -5.523281 1.818762 0.995332 -7.172790 -4.148636 -70.964832 -4.920136 -4.434664 -68.434971 -0.000003 0.000003 -0.000002 0.000001 0.000000 -0.000002 -23.524688 8.793906 4.153675 -11.793437 8.156965 14.329443 -0.000002 0.000011 0.000003 0.000004 -0.000001 -0.000000 -1.824887 -10.309471 -70.772651 -8.231420 -2.739111 -78.288441 -0.000003 0.000010 0.000000 -0.000000 -0.000000 -0.000005 -10.835134 6.254422 -70.280174 -0.404851 -6.818480 -77.384206 -0.000000 0.000001 0.000003 -0.000001 0.000002 0.000003 -15.041569 6.370407 -69.005476 0.815845 -8.187739 -69.279162 -0.000002 0.000000 0.000008 -0.000001 0.000001 0.000002 2.413537 -6.086532 -38.930442 -65.360389 34.617294 4.313264 -23.995860 28.269504 -2.854795 11.032547 3.284707 8.732623 -13.227595 1.850688 88.213348 -5.732906 1.100479 85.065806 -0.000003 -0.000002 -0.000004 0.000001 -0.000000 -0.000001 -17.327374 6.468794 -26.575899 3.905398 -21.907407 1.208157 -0.000008 0.000002 -0.000012 -0.000001 0.000004 0.000002 -8.298292 4.712212 84.750592 -5.627130 0.872434 82.510283 -0.000001 -0.000005 0.000001 -0.000000 -0.000000 0.000000 -13.841326 -7.055909 79.586088 -0.342013 7.117684 79.176502 -0.000011 0.000001 -0.000006 -0.000003 0.000001 0.000000 -18.214426 -11.611188 79.181017 0.925659 11.932257 75.475482 -0.000003 -0.000004 0.000006 0.000000 -0.000001 0.000002 -37.631583 6.963258 8.660113 57.134392 6.223238 -2.369708 38.463404 -2.183781 -3.501949 0.000002 0.000002 -0.000003 0.000003 -0.000000 0.000001 -10.636848 -14.211455 -5.199186 27.924470 -9.321255 2.354883 35.029834 -0.374420 0.268553 -0.000026 0.000009 -0.000011 -0.000003 -0.000000 0.000001 
